<?xml version="1.0" encoding="utf-8"?>
<!-- Generator: Adobe Illustrator 16.0.0, SVG Export Plug-In . SVG Version: 6.00 Build 0)  -->
<!DOCTYPE svg PUBLIC "-//W3C//DTD SVG 1.0//EN" "http://www.w3.org/TR/2001/REC-SVG-20010904/DTD/svg10.dtd">
<svg version="1.0" id="Layer_1" xmlns="http://www.w3.org/2000/svg" xmlns:xlink="http://www.w3.org/1999/xlink" x="0px" y="0px"
	 width="417.333px" height="417.333px" viewBox="0 0 417.333 417.333" enable-background="new 0 0 417.333 417.333"
	 xml:space="preserve">
<g>
	<path d="M208.75,147c-34.932,0-63.25,28.318-63.25,63.25c0,34.932,28.318,63.25,63.25,63.25c34.932,0,63.25-28.318,63.25-63.25
		C272,175.317,243.682,147,208.75,147z M208.75,251.9c-22.966,0-41.65-18.685-41.65-41.65s18.684-41.65,41.65-41.65
		s41.65,18.684,41.65,41.65S231.716,251.9,208.75,251.9z"/>
</g>
<path fill="none" stroke="#FFFFFF" stroke-miterlimit="10" d="M151,88"/>
<g>
	<path d="M264,88H155.5C91,94,88,154,88,154v110c6.5,64.5,68.5,66.5,68.5,66.5h105c63.5-7,67.5-64,67.5-64V153
		C323.5,93.5,264,88,264,88z M307.401,265.342c-0.32,2.362-1.88,11.56-7.681,20.769c-8.237,13.074-21.155,20.535-39.471,22.789
		H157.111c-1.831-0.14-12.734-1.197-23.533-7.209c-14.049-7.822-21.9-20.534-23.978-38.841V154.866
		c0.221-2.141,1.544-12.249,7.49-22.243c8.066-13.56,20.983-21.097,39.469-23.023h106.069c2.791,0.424,12.581,2.246,22.258,8.018
		c13.391,7.987,20.763,19.915,22.515,36.446V265.342z"/>
</g>
<circle stroke="#FFFFFF" stroke-miterlimit="10" cx="273.34" cy="141.605" r="11.106"/>
<g>
	<path d="M208.667,0C93.423,0,0,93.423,0,208.667c0,115.244,93.423,208.667,208.667,208.667
		c115.244,0,208.667-93.423,208.667-208.667C417.333,93.423,323.911,0,208.667,0z M208.667,395.734
		c-103.149,0-187.066-83.918-187.066-187.067C21.6,105.518,105.518,21.6,208.667,21.6c103.149,0,187.067,83.917,187.067,187.066
		C395.734,311.816,311.816,395.734,208.667,395.734z"/>
</g>
</svg>
