<?xml version="1.0" encoding="utf-8"?>
<!-- Generator: Adobe Illustrator 16.0.0, SVG Export Plug-In . SVG Version: 6.00 Build 0)  -->
<!DOCTYPE svg PUBLIC "-//W3C//DTD SVG 1.1//EN" "http://www.w3.org/Graphics/SVG/1.1/DTD/svg11.dtd">
<svg version="1.1" id="Layer_1" xmlns="http://www.w3.org/2000/svg" xmlns:xlink="http://www.w3.org/1999/xlink" x="0px" y="0px"
	 width="576px" height="576px" viewBox="0 0 576 576" enable-background="new 0 0 576 576" xml:space="preserve">
<g>
	<path fill="#FFFFFF" d="M287.334,575.794c158.726,0,287.406-128.677,287.406-287.403c0-158.729-128.681-287.407-287.406-287.407
		C128.604,0.984-0.07,129.662-0.07,288.391C-0.07,447.117,128.604,575.794,287.334,575.794"/>
	<path d="M287.334,564.94c-152.488,0-276.547-124.059-276.547-276.548c0-152.491,124.06-276.552,276.547-276.552
		c152.483,0,276.548,124.061,276.548,276.552C563.882,440.882,439.817,564.94,287.334,564.94z M287.334,15.51
		c-150.465,0-272.878,122.415-272.878,272.883s122.414,272.879,272.878,272.879c150.467,0,272.877-122.411,272.877-272.879
		S437.801,15.51,287.334,15.51z"/>
	<path d="M287.334,551.089c-144.853,0-262.702-117.848-262.702-262.7c0-144.854,117.849-262.699,262.702-262.699
		c144.854,0,262.698,117.846,262.698,262.699C550.032,433.241,432.188,551.089,287.334,551.089z M287.334,29.358
		c-142.83,0-259.031,116.2-259.031,259.03c0,142.829,116.201,259.03,259.031,259.03c142.832,0,259.029-116.201,259.029-259.03
		C546.363,145.558,430.166,29.358,287.334,29.358z"/>
</g>
<g>
	<rect x="261.941" y="369.466" width="51.125" height="2.386"/>
	<line fill="none" stroke="#000000" stroke-width="0.427" x1="313.066" y1="391.772" x2="261.941" y2="391.772"/>
	<line fill="none" stroke="#000000" stroke-width="0.427" x1="313.066" y1="381.217" x2="287.502" y2="381.217"/>
	<rect x="287.502" y="401.135" width="25.564" height="2.388"/>
	<rect x="261.941" y="390.579" width="51.125" height="2.386"/>
	<rect x="287.502" y="380.022" width="25.564" height="2.385"/>
	<rect x="261.941" y="328.802" width="51.125" height="2.388"/>
	<line fill="none" stroke="#000000" stroke-width="0.427" x1="313.066" y1="351.11" x2="261.941" y2="351.11"/>
	<line fill="none" stroke="#000000" stroke-width="0.427" x1="313.066" y1="340.553" x2="287.502" y2="340.553"/>
	<rect x="287.502" y="360.473" width="25.564" height="2.386"/>
	<rect x="261.941" y="349.916" width="51.125" height="2.385"/>
	<rect x="287.502" y="339.359" width="25.564" height="2.385"/>
	<g>
		<path d="M177.395,164.25v64.174h4.555c3.505-11.919,7.364-21.745,11.574-29.454c4.213-7.715,8.997-13.732,14.381-18.064
			c5.373-4.322,11.449-7.362,18.231-9.12c6.785-1.749,14.492-2.627,23.148-2.627h12.624l0.041,118.98h-0.007v2.387h51.125v-2.387
			h-0.307v-118.98h12.623c8.65,0,16.364,0.878,23.146,2.627c6.775,1.758,12.852,4.798,18.235,9.12
			c5.374,4.333,10.174,10.349,14.378,18.064c4.21,7.708,8.068,17.535,11.575,29.454h4.557V164.25H177.395z"/>
	</g>
	<line fill="none" stroke="#000000" stroke-width="0.427" x1="313.066" y1="310.445" x2="261.941" y2="310.445"/>
	<line fill="none" stroke="#000000" stroke-width="0.427" x1="313.066" y1="299.889" x2="287.502" y2="299.889"/>
	<rect x="287.502" y="319.812" width="25.564" height="2.385"/>
	<rect x="261.941" y="309.254" width="51.125" height="2.385"/>
	<rect x="287.502" y="298.697" width="25.564" height="2.384"/>
	<rect x="233.025" y="410.433" width="114.162" height="2.386"/>
</g>
</svg>
