<?xml version="1.0" encoding="utf-8"?>
<!-- Generator: Adobe Illustrator 16.0.0, SVG Export Plug-In . SVG Version: 6.00 Build 0)  -->
<!DOCTYPE svg PUBLIC "-//W3C//DTD SVG 1.0//EN" "http://www.w3.org/TR/2001/REC-SVG-20010904/DTD/svg10.dtd">
<svg version="1.0" id="Layer_1" xmlns="http://www.w3.org/2000/svg" xmlns:xlink="http://www.w3.org/1999/xlink" x="0px" y="0px"
	 width="612px" height="792px" viewBox="0 0 612 792" xml:space="preserve" fill="white">
<g>
	<g>
		<path d="M306,15C137.001,15,0,152.001,0,321s137.001,306,306,306s306-137.001,306-306S474.999,15,306,15z M306,606.283
			c-157.953,0-286-128.045-286-286c0-157.953,128.047-286,286-286c157.954,0,286,128.047,286,286
			C592,478.238,463.954,606.283,306,606.283z"/>
	</g>
	<g>
		<path d="M305.5,47C154.45,47,32,169.45,32,320.5S154.45,594,305.5,594S579,471.55,579,320.5S456.55,47,305.5,47z M306,586
			C159.092,586,40,466.908,40,320C40,173.092,159.092,54,306,54c146.908,0,266,119.092,266,266C572,466.908,452.908,586,306,586z"/>
	</g>
	<rect x="235.25" y="469.5" width="141.25" height="7"/>
	<rect x="306" y="449.25" width="31.5" height="6.75"/>
	<rect x="306" y="412.25" width="31.5" height="6.75"/>
	<rect x="274" y="430.5" width="63.5" height="6.75"/>
	<rect x="306" y="375.25" width="31.5" height="6.75"/>
	<rect x="274" y="393.5" width="63.5" height="6.75"/>
	<rect x="306" y="338" width="31.5" height="6.75"/>
	<rect x="274" y="356.25" width="63.5" height="6.75"/>
	<path d="M337.75,179v147.75H274v-147.5h-21c0,0-30.75,0.25-46.75,15.75c-11.862,11.491-23.374,28.399-29.75,57h-5.75v-78.75H441.5
		V252h-6.25c0,0-7.75-35.5-26.25-53.5S369.5,179,337.75,179z"/>
</g>
<g>
	<polygon points="18.5,770.625 18.5,727.625 1.375,727.625 1.375,713.333 55,713.333 55,728.25 37.25,728.25 37.25,770.625 	"/>
	<g>
		<path d="M98.375,713.333h-19.5L53.75,770.625h18.375l3.75-9.75H101.5l3.25,9.75h18.875L98.375,713.333z M81.375,747.625
			l7.313-17.125l7.188,17.125H81.375z"/>
	</g>
	<g>
		<path d="M163.625,713.333h-32.25v57.292h20.25V756.5h16c0,0,19-0.625,19-21.5S163.625,713.333,163.625,713.333z M160.5,742.625h-9
			V727.5h8.125c0,0,8.25,0.5,8.25,7.563S160.5,742.625,160.5,742.625z"/>
	</g>
	<g>
		<path d="M230.875,713.333h-32.25v57.292h20.25V756.5h16c0,0,19-0.625,19-21.5S230.875,713.333,230.875,713.333z M227.75,742.625
			h-9V727.5h8.125c0,0,8.25,0.5,8.25,7.563S227.75,742.625,227.75,742.625z"/>
	</g>
	<g>
		<path d="M311.25,741.979c0,0,7.75-2.354,7.75-13.104c0-14-17.5-14.875-17.5-14.875h-32.75v56.625c0,0,32.5,0,37.25,0
			s15.625-3.75,15.625-15.5S311.25,741.979,311.25,741.979z M281.5,723.25h17.375c0,0,7.125,0.5,7.125,7.25s-6.5,7.125-7.875,7.125
			s-16.625,0-16.625,0V723.25z M300.875,761.755c-1.459,0-19.375,0-19.375,0V746.5h20.171c0,0,7.562,0.53,7.562,7.694
			C309.232,761.357,302.334,761.755,300.875,761.755z"/>
	</g>
	<path d="M336.375,714h12.25v35.5c0,0,2.125,12.25,13.625,12.25s13.25-11.375,13.25-12.5s0-35.25,0-35.25h13v34.25
		c0,0-0.25,23.75-25.5,23.75s-26.625-20.625-26.625-23.5S336.375,714,336.375,714z"/>
	<rect x="407.625" y="714" width="13.125" height="57.333"/>
	<polygon points="440.75,714 453.5,714 453.5,760.875 482.875,760.875 482.875,771.333 440.75,771.333 	"/>
	<g>
		<path d="M527,714h-31.625v56.5h32.875c0,0,25.25-2.125,25.25-27.834S527,714,527,714z M525.25,760.75h-17.375V724.5H525
			c0,0,15.75,1.625,15.75,17.75S525.25,760.75,525.25,760.75z"/>
	</g>
	<path d="M609.5,717.75l-5,10c0,0-5.75-5-16.25-5s-11,7.25-11,7.25s-1.75,5.75,16.125,8.125s17.875,16.125,17.875,16.125
		s0,18.667-23.625,17.875c-20.25-0.125-24.75-6.875-24.75-6.875l5-9.625c0,0,7.25,6.375,19.188,6.25s11.938-5.985,11.938-7
		s1.125-5.625-18-8c-16.75-4.5-16.625-13.875-16.625-17.625s4.75-15.917,24.125-15.917C605.625,713.875,609.5,717.75,609.5,717.75z"
		/>
</g>
</svg>
