<?xml version="1.0" encoding="utf-8"?>
<!DOCTYPE svg PUBLIC "-//W3C//DTD SVG 1.0//EN" "http://www.w3.org/TR/2001/REC-SVG-20010904/DTD/svg10.dtd">
<svg version="1.0" id="Layer_1" xmlns="http://www.w3.org/2000/svg" xmlns:xlink="http://www.w3.org/1999/xlink" x="0px" y="0px"
	 width="164.108px" height="168.694px" viewBox="0 0 164.108 168.694" enable-background="new 0 0 164.108 168.694"
	 xml:space="preserve">
<g if="tappbuildslogotext">
	<path fill="#FFFFFF" d="M5.727,154.114H0v-4.806h17.806v4.806h-5.727v14.218H5.727V154.114z M31.956,164.975h-8.163l-1.382,3.357h-6.089
		l8.458-19.024h6.254l8.458,19.024h-6.188L31.956,164.975z M30.178,160.564l-2.271-5.727l-2.337,5.727H30.178z M59.203,156.451
		c0,4.443-3.423,7.142-8.788,7.142h-2.864v4.739H41.2v-19.024h9.216C55.78,149.308,59.203,152.04,59.203,156.451z M52.851,156.451
		c0-1.448-0.955-2.37-2.896-2.37h-2.403v4.772h2.403C51.896,158.853,52.851,157.932,52.851,156.451z M80.428,156.451
		c0,4.443-3.423,7.142-8.788,7.142h-2.863v4.739h-6.353v-19.024h9.216C77.005,149.308,80.428,152.04,80.428,156.451z
		 M74.076,156.451c0-1.448-0.955-2.37-2.896-2.37h-2.402v4.772h2.402C73.122,158.853,74.076,157.932,74.076,156.451z"/>
	<path fill="#FFFFFF" d="M83.782,168.332c0.066-1.086,0.132-2.699,0.132-4.114v-19.254h2.863v10.005h0.065c1.021-1.777,2.863-2.929,5.432-2.929
		c3.949,0,6.746,3.292,6.713,8.129c0,5.694-3.587,8.524-7.141,8.524c-2.305,0-4.148-0.889-5.332-2.995h-0.1l-0.131,2.633H83.782z
			M86.777,161.947c0,0.362,0.065,0.724,0.132,1.053c0.56,2.008,2.238,3.39,4.344,3.39c3.029,0,4.839-2.468,4.839-6.122
		c0-3.192-1.646-5.924-4.739-5.924c-1.975,0-3.818,1.35-4.41,3.555c-0.066,0.329-0.165,0.724-0.165,1.185V161.947z"/>
	<path fill="#FFFFFF" d="M115.967,163.987c0,1.646,0.033,3.094,0.131,4.345h-2.566l-0.164-2.6h-0.066c-0.758,1.284-2.436,2.962-5.266,2.962
		c-2.502,0-5.498-1.382-5.498-6.978v-9.314h2.896v8.821c0,3.028,0.922,5.069,3.555,5.069c1.943,0,3.291-1.35,3.818-2.633
		c0.164-0.428,0.264-0.954,0.264-1.481v-9.775h2.896V163.987z"/>
	<path fill="#FFFFFF" d="M123.995,147.926c0.033,0.987-0.691,1.777-1.844,1.777c-1.02,0-1.744-0.79-1.744-1.777c0-1.02,0.758-1.81,1.811-1.81
		C123.303,146.116,123.995,146.906,123.995,147.926z M120.768,168.332v-15.93h2.896v15.93H120.768z"/>
	<path fill="#FFFFFF" d="M128.469,144.964h2.896v23.368h-2.896V144.964z"/>
	<path fill="#FFFFFF" d="M149.993,144.964v19.254c0,1.416,0.033,3.028,0.131,4.114h-2.6l-0.131-2.765h-0.066c-0.889,1.777-2.83,3.126-5.432,3.126
		c-3.85,0-6.813-3.258-6.813-8.096c-0.033-5.299,3.258-8.558,7.143-8.558c2.436,0,4.08,1.152,4.805,2.436h0.066v-9.512H149.993z
			M147.096,158.886c0-0.362-0.033-0.855-0.131-1.218c-0.43-1.843-2.008-3.357-4.182-3.357c-2.994,0-4.771,2.633-4.771,6.155
		c0,3.226,1.58,5.892,4.707,5.892c1.941,0,3.719-1.284,4.246-3.456c0.098-0.395,0.131-0.79,0.131-1.25V158.886z"/>
	<path fill="#FFFFFF" d="M154.399,165.37c0.855,0.56,2.369,1.152,3.816,1.152c2.107,0,3.096-1.053,3.096-2.37c0-1.382-0.824-2.139-2.963-2.929
		c-2.863-1.02-4.213-2.6-4.213-4.509c0-2.567,2.074-4.674,5.496-4.674c1.613,0,3.027,0.461,3.916,0.987l-0.723,2.106
		c-0.625-0.395-1.777-0.921-3.26-0.921c-1.711,0-2.666,0.987-2.666,2.172c0,1.316,0.955,1.909,3.029,2.699
		c2.764,1.053,4.18,2.436,4.18,4.805c0,2.798-2.172,4.772-5.957,4.772c-1.744,0-3.357-0.428-4.477-1.086L154.399,165.37z"/>
</g>
<g>
	<g>
		<path fill="#FFFFFF" d="M81.911,128.393c35.179,0,63.697-28.518,63.697-63.697c0-35.179-28.519-63.698-63.697-63.698
			c-35.179,0-63.697,28.519-63.697,63.698C18.214,99.875,46.731,128.393,81.911,128.393"/>
	</g>
	<g>
		<path  d="M81.911,125.771c-33.677,0-61.074-27.397-61.074-61.074S48.234,3.622,81.911,3.622
			s61.074,27.398,61.074,61.075S115.587,125.771,81.911,125.771z M81.911,4.426c-33.232,0-60.27,27.037-60.27,60.27
			c0,33.232,27.037,60.27,60.27,60.27s60.27-27.037,60.27-60.27C142.18,31.463,115.143,4.426,81.911,4.426z"/>
	</g>
	<g>
		<path  d="M81.911,122.7c-31.984,0-58.004-26.021-58.004-58.004S49.927,6.691,81.911,6.691
			c31.983,0,58.004,26.021,58.004,58.004S113.894,122.7,81.911,122.7z M81.911,7.496c-31.54,0-57.2,25.66-57.2,57.2
			s25.66,57.2,57.2,57.2s57.199-25.66,57.199-57.2S113.451,7.496,81.911,7.496z"/>
	</g>
	<g>
		<path  d="M73.478,38.271c-1.918,0-3.627,0.194-5.13,0.583c-1.503,0.389-2.85,1.063-4.041,2.021
			c-1.193,0.959-2.254,2.293-3.187,4.002c-0.933,1.71-1.788,3.887-2.565,6.529h-1.01V37.183h48.732v14.223h-1.01
			c-0.778-2.642-1.634-4.819-2.565-6.529c-0.933-1.709-1.996-3.043-3.187-4.002c-1.192-0.958-2.539-1.632-4.041-2.021
			c-1.505-0.389-3.215-0.583-5.13-0.583h-2.799v27.175H76.284l-0.008-27.175H73.478z"/>
	</g>
</g>
<rect x="76.246" y="82.665"  width="11.33" height="0.805"/>
<rect x="81.911" y="89.407"  width="5.665" height="0.805"/>
<rect x="76.246" y="87.16"  width="11.33" height="0.805"/>
<rect x="81.911" y="84.913"  width="5.665" height="0.805"/>
<rect x="76.246" y="73.653"  width="11.33" height="0.805"/>
<rect x="81.911" y="80.396"  width="5.665" height="0.805"/>
<rect x="76.246" y="78.148"  width="11.33" height="0.805"/>
<rect x="81.911" y="75.9"  width="5.665" height="0.805"/>
<rect x="81.911" y="71.383"  width="5.665" height="0.805"/>
<rect x="76.246" y="69.136"  width="11.33" height="0.805"/>
<rect x="81.911" y="66.889"  width="5.665" height="0.805"/>
<rect x="69.26" y="91.546"  width="25.301" height="0.805"/>
</svg>
