<?xml version="1.0" encoding="utf-8"?>
<!DOCTYPE svg PUBLIC "-//W3C//DTD SVG 1.0//EN" "http://www.w3.org/TR/2001/REC-SVG-20010904/DTD/svg10.dtd">
<svg version="1.0" id="Layer_1" xmlns="http://www.w3.org/2000/svg" xmlns:xlink="http://www.w3.org/1999/xlink" x="0px" y="0px"
	 width="379.5px" height="36.222px" viewBox="227.5 75.258 379.5 36.222" enable-background="new 227.5 75.258 379.5 36.222"
	 xml:space="preserve">
	<g>
		<polygon points="238.167,110.527 238.167,83.745 227.5,83.745 227.5,74.843 260.901,74.843 260.901,84.134 249.846,84.134 249.846,110.527"/>
		<g>
			<path d="M287.919,74.843h-12.146l-15.649,35.687h11.445l2.336-6.073h15.961l2.024,6.073h11.757L287.919,74.843z M277.33,96.202 l4.555-10.667l4.477,10.667H277.33z"/>
		</g>
		<g>
			<path d="M328.563,74.843h-20.089v35.687h12.613v-8.799h9.966c0,0,11.835-0.39,11.835-13.392S328.563,74.843,328.563,74.843z M326.615,93.088h-5.606v-9.421h5.062c0,0,5.139,0.312,5.139,4.71S326.615,93.088,326.615,93.088z"/>
		</g>
		<g>
			<path d="M370.449,74.843h-20.088v35.687h12.612v-8.799h9.968c0,0,11.834-0.39,11.834-13.392S370.449,74.843,370.449,74.843z M368.503,93.088h-5.604v-9.421h5.061c0,0,5.139,0.312,5.139,4.71S368.503,93.088,368.503,93.088z"/>
		</g>
		<g>
			<path d="M420.513,92.685c0,0,4.827-1.466,4.827-8.162c0-8.72-10.899-9.265-10.899-9.265h-20.398v35.27c0,0,20.243,0,23.202,0
				c2.958,0,9.731-2.334,9.731-9.653C426.976,93.555,420.513,92.685,420.513,92.685z M401.982,81.02h10.821
				c0,0,4.438,0.311,4.438,4.516s-4.049,4.438-4.905,4.438c-0.855,0-10.354,0-10.354,0V81.02L401.982,81.02z M414.051,105.003
				c-0.909,0-12.067,0-12.067,0v-9.502h12.563c0,0,4.71,0.331,4.71,4.793S414.959,105.003,414.051,105.003z"/>
		</g>
		
		<path d="M436.163,75.258h7.63V97.37c0,0,1.323,7.63,8.486,7.63s8.253-7.085,8.253-7.786c0-0.7,0-21.956,0-21.956h8.098v21.333
			c0,0-0.155,14.793-15.883,14.793c-15.729,0-16.584-12.847-16.584-14.637S436.163,75.258,436.163,75.258z"/>
		<rect x="480.542" y="75.258" width="8.176" height="35.711"/>
		<polygon points="501.175,75.258 509.117,75.258 509.117,104.456 527.414,104.456 527.414,110.969 501.175,110.969 	"/>
		<g>
			<path d="M554.896,75.258h-19.697v35.192h20.478c0,0,15.729-1.324,15.729-17.337C571.404,77.1,554.896,75.258,554.896,75.258z
				M553.808,104.377h-10.821V81.798h10.667c0,0,9.811,1.012,9.811,11.056C563.464,102.898,553.808,104.377,553.808,104.377z"/>
		</g>
		<path d="M606.285,77.594l-3.114,6.229c0,0-3.582-3.114-10.122-3.114s-6.852,4.516-6.852,4.516s-1.09,3.582,10.044,5.061
			s11.134,10.044,11.134,10.044s0,11.627-14.716,11.134c-12.612-0.078-15.416-4.282-15.416-4.282l3.114-5.994
			c0,0,4.517,3.971,11.951,3.893c7.437-0.078,7.437-3.729,7.437-4.36s0.7-3.504-11.212-4.983
			c-10.435-2.802-10.355-8.643-10.355-10.979c0-2.335,2.959-9.914,15.027-9.914C603.871,75.18,606.285,77.594,606.285,77.594z"/>
	</g>
</svg>
