<?xml version="1.0" encoding="utf-8"?>
<!-- Generator: Adobe Illustrator 16.0.0, SVG Export Plug-In . SVG Version: 6.00 Build 0)  -->
<!DOCTYPE svg PUBLIC "-//W3C//DTD SVG 1.0//EN" "http://www.w3.org/TR/2001/REC-SVG-20010904/DTD/svg10.dtd">
<svg version="1.0" id="Layer_1" xmlns="http://www.w3.org/2000/svg" xmlns:xlink="http://www.w3.org/1999/xlink" x="0px" y="0px"
	 width="607px" height="186.625px" viewBox="0 0 607 186.625" enable-background="new 0 0 607 186.625" xml:space="preserve">
<g>
	<g>
		<path d="M93.313,0C41.777,0,0,41.777,0,93.313s41.777,93.313,93.313,93.313s93.313-41.777,93.313-93.313S144.848,0,93.313,0z
			 M93.313,180.308c-48.167,0-87.214-39.046-87.214-87.213S45.146,5.88,93.313,5.88c48.167,0,87.214,39.047,87.214,87.214
			S141.479,180.308,93.313,180.308z"/>
	</g>
	<g>
		<path d="M93.16,9.758c-46.062,0-83.402,37.34-83.402,83.402s37.34,83.402,83.402,83.402s83.402-37.34,83.402-83.402
			S139.222,9.758,93.16,9.758z M93.313,174.123c-44.798,0-81.115-36.316-81.115-81.115c0-44.798,36.316-81.115,81.115-81.115
			c44.799,0,81.115,36.316,81.115,81.115C174.427,137.806,138.111,174.123,93.313,174.123z"/>
	</g>
	<rect x="71.738" y="138.597" width="43.073" height="2.134"/>
	<rect x="93.313" y="132.421" width="9.605" height="2.059"/>
	<rect x="93.313" y="121.139" width="9.605" height="2.058"/>
	<rect x="83.554" y="126.704" width="19.364" height="2.059"/>
	<rect x="93.313" y="109.855" width="9.605" height="2.059"/>
	<rect x="83.554" y="115.421" width="19.364" height="2.058"/>
	<rect x="93.313" y="98.497" width="9.605" height="2.058"/>
	<rect x="83.554" y="104.062" width="19.364" height="2.059"/>
	<path d="M102.995,50.011v45.055h-19.44V50.087H77.15c0,0-9.377,0.076-14.256,4.803c-3.617,3.504-7.128,8.66-9.072,17.382h-1.753
		V48.257h82.563v24.014h-1.906c0,0-2.363-10.826-8.005-16.314S112.676,50.011,102.995,50.011z"/>
</g>
<g>
	<polygon points="238.167,110.528 238.167,83.745 227.5,83.745 227.5,74.843 260.901,74.843 260.901,84.134 249.846,84.134 
		249.846,110.528 	"/>
	<g>
		<path d="M287.919,74.843h-12.146l-15.649,35.686h11.445l2.336-6.073h15.961l2.024,6.073h11.757L287.919,74.843z M277.33,96.202
			l4.555-10.667l4.477,10.667H277.33z"/>
	</g>
	<g>
		<path d="M328.562,74.843h-20.088v35.686h12.613v-8.798h9.966c0,0,11.835-0.39,11.835-13.392S328.562,74.843,328.562,74.843z
			 M326.615,93.088h-5.606v-9.421h5.061c0,0,5.139,0.312,5.139,4.71S326.615,93.088,326.615,93.088z"/>
	</g>
	<g>
		<path d="M370.449,74.843h-20.088v35.686h12.613v-8.798h9.967c0,0,11.834-0.39,11.834-13.392S370.449,74.843,370.449,74.843z
			 M368.503,93.088h-5.605v-9.421h5.061c0,0,5.139,0.312,5.139,4.71S368.503,93.088,368.503,93.088z"/>
	</g>
	<g>
		<path d="M420.513,92.685c0,0,4.827-1.466,4.827-8.162c0-8.72-10.9-9.265-10.9-9.265h-20.398v35.27c0,0,20.243,0,23.202,0
			c2.958,0,9.732-2.335,9.732-9.654S420.513,92.685,420.513,92.685z M401.982,81.02h10.822c0,0,4.438,0.311,4.438,4.516
			s-4.049,4.438-4.905,4.438s-10.355,0-10.355,0V81.02z M414.051,105.003c-0.909,0-12.068,0-12.068,0v-9.502h12.563
			c0,0,4.71,0.331,4.71,4.793C419.256,104.756,414.959,105.003,414.051,105.003z"/>
	</g>
	<path d="M436.163,75.258h7.63V97.37c0,0,1.323,7.63,8.486,7.63s8.253-7.085,8.253-7.786s0-21.956,0-21.956h8.098v21.333
		c0,0-0.155,14.793-15.883,14.793s-16.584-12.847-16.584-14.637C436.163,94.957,436.163,75.258,436.163,75.258z"/>
	<rect x="480.542" y="75.258" width="8.176" height="35.711"/>
	<polygon points="501.175,75.258 509.117,75.258 509.117,104.456 527.414,104.456 527.414,110.969 501.175,110.969 	"/>
	<g>
		<path d="M554.897,75.258h-19.698v35.192h20.478c0,0,15.728-1.324,15.728-17.337C571.404,77.1,554.897,75.258,554.897,75.258z
			 M553.808,104.377h-10.822V81.798h10.667c0,0,9.811,1.012,9.811,11.056S553.808,104.377,553.808,104.377z"/>
	</g>
	<path d="M606.285,77.594l-3.114,6.229c0,0-3.582-3.114-10.122-3.114s-6.852,4.516-6.852,4.516s-1.09,3.582,10.044,5.061
		c11.134,1.479,11.134,10.044,11.134,10.044s0,11.627-14.716,11.134c-12.612-0.078-15.416-4.282-15.416-4.282l3.114-5.995
		c0,0,4.517,3.971,11.952,3.893c7.436-0.078,7.436-3.728,7.436-4.36s0.7-3.504-11.212-4.983
		c-10.434-2.803-10.355-8.643-10.355-10.979c0-2.335,2.959-9.914,15.027-9.914C603.871,75.18,606.285,77.594,606.285,77.594z"/>
</g>
</svg>
